<svg width="18" height="16" viewBox="0 0 18 16" fill="none" xmlns="http://www.w3.org/2000/svg">
<path d="M7.00775 14.734C7.36893 14.734 7.66174 14.4412 7.66174 14.08C7.66174 13.7188 7.36893 13.426 7.00775 13.426C6.64656 13.426 6.35376 13.7188 6.35376 14.08C6.35376 14.4412 6.64656 14.734 7.00775 14.734Z" stroke="#5CA720" stroke-width="1.67857" stroke-linecap="round" stroke-linejoin="round"/>
<path d="M14.2016 14.734C14.5628 14.734 14.8556 14.4412 14.8556 14.08C14.8556 13.7188 14.5628 13.426 14.2016 13.426C13.8404 13.426 13.5476 13.7188 13.5476 14.08C13.5476 14.4412 13.8404 14.734 14.2016 14.734Z" stroke="#5CA720" stroke-width="1.67857" stroke-linecap="round" stroke-linejoin="round"/>
<path d="M1.77563 1H4.39159L6.14427 9.7569C6.20408 10.058 6.36788 10.3285 6.607 10.5209C6.84612 10.7134 7.14533 10.8157 7.45225 10.8098H13.809C14.1159 10.8157 14.4151 10.7134 14.6543 10.5209C14.8934 10.3285 15.0572 10.058 15.117 9.7569L16.1634 4.26994H5.04557" stroke="#5CA720" stroke-width="1.67857" stroke-linecap="round" stroke-linejoin="round"/>
</svg>
